<svg width="82" height="19" viewBox="0 0 82 19" fill="none" xmlns="http://www.w3.org/2000/svg">
<mask id="mask0" mask-type="alpha" maskUnits="userSpaceOnUse" x="37" y="0" width="23" height="19">
<path d="M56.441 0H59.6752L52.9445 6.66419C50.5071 9.07629 46.5553 9.07629 44.1161 6.66419L37.3828 0H40.6196L45.7332 5.06239C46.4782 5.79669 47.4823 6.20832 48.5283 6.20832C49.5744 6.20832 50.5785 5.79669 51.3235 5.06239L56.441 0Z" fill="#0B9FE6"/>
<path d="M40.5782 18.531H37.3418L44.1161 11.8257C46.5536 9.41358 50.5054 9.41358 52.9446 11.8257L59.7189 18.531H56.4847L51.3275 13.4275C50.5825 12.6932 49.5784 12.2815 48.5323 12.2815C47.4863 12.2815 46.4822 12.6932 45.7372 13.4275L40.5782 18.531Z" fill="#0B9FE6"/>
</mask>
<g mask="url(#mask0)">
<rect x="36.2305" y="-0.648438" width="24.8316" height="20.1989" fill="white"/>
</g>
<mask id="mask1" mask-type="alpha" maskUnits="userSpaceOnUse" x="22" y="0" width="12" height="19">
<path d="M27.925 0L27.8008 0.422265V12.6754L27.925 12.7994L33.6115 9.43741L27.925 0Z" fill="#343434"/>
<path d="M27.9248 0L22.2383 9.43741L27.9248 12.7995V6.85216V0Z" fill="#8C8C8C"/>
<path d="M27.9255 13.876L27.8555 13.9613V18.3262L27.9255 18.5307L33.6153 10.5156L27.9255 13.876Z" fill="#3C3C3B"/>
<path d="M27.9248 18.5307V13.876L22.2383 10.5156L27.9248 18.5307Z" fill="#8C8C8C"/>
<path d="M27.9258 12.7998L33.6122 9.43778L27.9258 6.85254V12.7998Z" fill="#141414"/>
<path d="M22.2383 9.43778L27.9247 12.7998V6.85254L22.2383 9.43778Z" fill="#393939"/>
</mask>
<g mask="url(#mask1)">
<rect x="15.4746" y="0.371094" width="24.8316" height="20.1989" fill="white"/>
</g>
<mask id="mask2" mask-type="alpha" maskUnits="userSpaceOnUse" x="63" y="0" width="19" height="19">
<path d="M81.531 9.26548C81.531 14.3827 77.3827 18.5311 72.2655 18.5311C67.1483 18.5311 63 14.3827 63 9.26548C63 4.14829 67.1483 0 72.2655 0C77.3827 0 81.531 4.14829 81.531 9.26548" fill="#BEBEBE"/>
<path d="M79.5635 9.26523C79.5635 13.2957 76.296 16.5636 72.2652 16.5636C68.2346 16.5636 64.9668 13.2957 64.9668 9.26523C64.9668 5.2344 68.2346 1.9668 72.2652 1.9668C76.296 1.9668 79.5635 5.23434 79.5635 9.26523Z" fill="#BEBEBE"/>
</mask>
<g mask="url(#mask2)">
<rect x="61.2402" y="-0.462891" width="24.8316" height="20.1989" fill="white"/>
<path d="M71.7234 11.7411L72.3253 9.47496L73.7501 8.95441L74.1045 7.62261L74.0924 7.58958L72.6898 8.10197L73.7004 4.29688H70.8345L69.5129 9.26261L68.4095 9.66569L68.0449 11.0387L69.1475 10.6359L68.3686 13.5625H75.9959L76.4849 11.7411H71.7234Z" fill="#060D25"/>
</g>
<mask id="mask3" mask-type="alpha" maskUnits="userSpaceOnUse" x="0" y="0" width="19" height="19">
<path d="M18.2537 11.5083C17.0161 16.4726 11.9881 19.4938 7.02329 18.2558C2.06049 17.0181 -0.960689 11.9899 0.27755 7.02594C1.51463 2.06111 6.54259 -0.960361 11.506 0.2773C16.4705 1.51496 19.4914 6.54379 18.2537 11.5083Z" fill="#F7931A"/>
</mask>
<g mask="url(#mask3)">
<rect x="-65.877" y="-3.24219" width="90.7096" height="25.2949" fill="white"/>
<path d="M13.3518 7.94702C13.5362 6.714 12.5974 6.05115 11.3137 5.60896L11.7301 3.93867L10.7134 3.68529L10.308 5.31156C10.0407 5.24496 9.7662 5.18212 9.49342 5.11986L9.90172 3.48287L8.88559 3.22949L8.46889 4.8992C8.24765 4.84882 8.03047 4.79901 7.81965 4.7466L7.82081 4.74138L6.41867 4.39128L6.1482 5.4772C6.1482 5.4772 6.90256 5.65008 6.88663 5.6608C7.29841 5.7636 7.37283 6.03609 7.36038 6.25212L6.88605 8.15494C6.91443 8.16218 6.9512 8.1726 6.99175 8.18882C6.95787 8.18042 6.92167 8.17116 6.88431 8.16218L6.21944 10.8278C6.16905 10.9529 6.04135 11.1405 5.75351 11.0693C5.76364 11.084 5.0145 10.8848 5.0145 10.8848L4.50977 12.0486L5.83285 12.3784C6.07899 12.4401 6.32021 12.5047 6.55767 12.5655L6.13691 14.2549L7.15246 14.5083L7.56917 12.8369C7.84658 12.9121 8.11589 12.9816 8.37941 13.0471L7.96415 14.7107L8.98086 14.9641L9.40162 13.2779C11.1353 13.606 12.439 13.4736 12.9878 11.9056C13.43 10.643 12.9658 9.91471 12.0536 9.4398C12.7179 9.28661 13.2183 8.84964 13.3518 7.94702V7.94702ZM11.0288 11.2045C10.7146 12.4671 8.58877 11.7845 7.89958 11.6134L8.45788 9.37522C9.14708 9.54723 11.3571 9.88778 11.0288 11.2045ZM11.3432 7.92878C11.0566 9.07725 9.28724 8.49375 8.71329 8.35069L9.21948 6.32075C9.79342 6.4638 11.6418 6.73079 11.3432 7.92878V7.92878Z" fill="#060D25"/>
</g>
</svg>
